<mxfile host="app.diagrams.net" modified="2024-06-10T20:10:56.779Z" agent="Mozilla/5.0 (Windows NT 10.0; Win64; x64) AppleWebKit/537.36 (KHTML, like Gecko) Chrome/125.0.0.0 Safari/537.36" etag="quiWddkrmCGPfHJmU8sB" version="24.5.2" type="device">
  <diagram name="Page-1" id="PC3V6zhVlx42TVVC7tYr">
    <mxGraphModel dx="1176" dy="647" grid="0" gridSize="10" guides="1" tooltips="1" connect="1" arrows="1" fold="1" page="1" pageScale="1" pageWidth="1100" pageHeight="850" math="0" shadow="0">
      <root>
        <mxCell id="0" />
        <mxCell id="1" parent="0" />
        <mxCell id="TyVUZQtJlwXZdlgKBtVK-18" value="" style="edgeStyle=orthogonalEdgeStyle;rounded=0;orthogonalLoop=1;jettySize=auto;html=1;exitX=1.002;exitY=0.49;exitDx=0;exitDy=0;exitPerimeter=0;" parent="1" source="TyVUZQtJlwXZdlgKBtVK-5" target="TyVUZQtJlwXZdlgKBtVK-7" edge="1">
          <mxGeometry relative="1" as="geometry" />
        </mxCell>
        <mxCell id="TyVUZQtJlwXZdlgKBtVK-5" value="" style="rounded=1;whiteSpace=wrap;html=1;fillColor=#CCE5FF;" parent="1" vertex="1">
          <mxGeometry x="320" y="60" width="105" height="265" as="geometry" />
        </mxCell>
        <mxCell id="TyVUZQtJlwXZdlgKBtVK-1" value="Instance #1" style="rounded=0;whiteSpace=wrap;html=1;" parent="1" vertex="1">
          <mxGeometry x="330" y="70" width="85" height="20" as="geometry" />
        </mxCell>
        <mxCell id="TyVUZQtJlwXZdlgKBtVK-2" value="Instance #2" style="rounded=0;whiteSpace=wrap;html=1;" parent="1" vertex="1">
          <mxGeometry x="330" y="95" width="85" height="20" as="geometry" />
        </mxCell>
        <mxCell id="TyVUZQtJlwXZdlgKBtVK-3" value="Instance #3" style="rounded=0;whiteSpace=wrap;html=1;" parent="1" vertex="1">
          <mxGeometry x="330" y="120" width="85" height="20" as="geometry" />
        </mxCell>
        <mxCell id="TyVUZQtJlwXZdlgKBtVK-17" value="" style="edgeStyle=orthogonalEdgeStyle;rounded=0;orthogonalLoop=1;jettySize=auto;html=1;exitX=0;exitY=0.491;exitDx=0;exitDy=0;exitPerimeter=0;" parent="1" source="TyVUZQtJlwXZdlgKBtVK-5" target="TyVUZQtJlwXZdlgKBtVK-4" edge="1">
          <mxGeometry relative="1" as="geometry">
            <mxPoint x="310" y="190" as="sourcePoint" />
          </mxGeometry>
        </mxCell>
        <mxCell id="TyVUZQtJlwXZdlgKBtVK-4" value="Pending&lt;br&gt;List" style="shape=cylinder3;whiteSpace=wrap;html=1;boundedLbl=1;backgroundOutline=1;size=15;direction=north;" parent="1" vertex="1">
          <mxGeometry x="190" y="170" width="100" height="40" as="geometry" />
        </mxCell>
        <mxCell id="TyVUZQtJlwXZdlgKBtVK-6" value="Processor Services&lt;br&gt;(Active-Active)" style="text;html=1;strokeColor=none;fillColor=none;align=center;verticalAlign=middle;whiteSpace=wrap;rounded=0;fontStyle=1" parent="1" vertex="1">
          <mxGeometry x="310" y="20" width="120" height="30" as="geometry" />
        </mxCell>
        <mxCell id="TyVUZQtJlwXZdlgKBtVK-7" value="Processed&lt;br&gt;Stream" style="shape=cylinder3;whiteSpace=wrap;html=1;boundedLbl=1;backgroundOutline=1;size=15;direction=north;" parent="1" vertex="1">
          <mxGeometry x="460" y="170" width="100" height="40" as="geometry" />
        </mxCell>
        <mxCell id="TyVUZQtJlwXZdlgKBtVK-20" value="" style="edgeStyle=orthogonalEdgeStyle;rounded=0;orthogonalLoop=1;jettySize=auto;html=1;entryX=0;entryY=0.5;entryDx=0;entryDy=0;entryPerimeter=0;dashed=1;dashPattern=1 2;exitX=1;exitY=0.25;exitDx=0;exitDy=0;" parent="1" source="TyVUZQtJlwXZdlgKBtVK-8" target="TyVUZQtJlwXZdlgKBtVK-14" edge="1">
          <mxGeometry relative="1" as="geometry">
            <Array as="points">
              <mxPoint x="720" y="145" />
              <mxPoint x="720" y="105" />
            </Array>
            <mxPoint x="696" y="125" as="sourcePoint" />
          </mxGeometry>
        </mxCell>
        <mxCell id="Qf5dwaaXLrHv1M70qogi-1" value="Optional" style="edgeLabel;html=1;align=center;verticalAlign=middle;resizable=0;points=[];" parent="TyVUZQtJlwXZdlgKBtVK-20" vertex="1" connectable="0">
          <mxGeometry x="0.095" y="1" relative="1" as="geometry">
            <mxPoint x="6" y="7.600000000000001" as="offset" />
          </mxGeometry>
        </mxCell>
        <mxCell id="TyVUZQtJlwXZdlgKBtVK-8" value="" style="rounded=1;whiteSpace=wrap;html=1;fillColor=#CCE5FF;" parent="1" vertex="1">
          <mxGeometry x="590" y="100" width="105" height="180" as="geometry" />
        </mxCell>
        <mxCell id="TyVUZQtJlwXZdlgKBtVK-19" value="" style="edgeStyle=orthogonalEdgeStyle;rounded=0;orthogonalLoop=1;jettySize=auto;html=1;" parent="1" target="TyVUZQtJlwXZdlgKBtVK-7" edge="1">
          <mxGeometry relative="1" as="geometry">
            <mxPoint x="590" y="190" as="sourcePoint" />
          </mxGeometry>
        </mxCell>
        <mxCell id="TyVUZQtJlwXZdlgKBtVK-14" value="Database" style="shape=cylinder3;whiteSpace=wrap;html=1;boundedLbl=1;backgroundOutline=1;size=15;" parent="1" vertex="1">
          <mxGeometry x="760" y="65" width="60" height="80" as="geometry" />
        </mxCell>
        <mxCell id="TyVUZQtJlwXZdlgKBtVK-16" value="Sequencer Services&lt;br&gt;(Active-Standby)" style="text;html=1;strokeColor=none;fillColor=none;align=center;verticalAlign=middle;whiteSpace=wrap;rounded=0;fontStyle=1" parent="1" vertex="1">
          <mxGeometry x="582.25" y="20" width="120.5" height="30" as="geometry" />
        </mxCell>
        <mxCell id="TyVUZQtJlwXZdlgKBtVK-23" value="&lt;font color=&quot;#66b2ff&quot;&gt;Master-Slave&lt;/font&gt;" style="text;html=1;align=center;verticalAlign=middle;whiteSpace=wrap;rounded=0;" parent="1" vertex="1">
          <mxGeometry x="585.5" y="280" width="109.5" height="30" as="geometry" />
        </mxCell>
        <mxCell id="TyVUZQtJlwXZdlgKBtVK-25" value="&lt;font color=&quot;#66b2ff&quot;&gt;Parallel Processing&lt;/font&gt;" style="text;html=1;align=center;verticalAlign=middle;whiteSpace=wrap;rounded=0;" parent="1" vertex="1">
          <mxGeometry x="317.5" y="325" width="110" height="30" as="geometry" />
        </mxCell>
        <mxCell id="Qf5dwaaXLrHv1M70qogi-11" value="" style="edgeStyle=orthogonalEdgeStyle;rounded=0;orthogonalLoop=1;jettySize=auto;html=1;" parent="1" source="Qf5dwaaXLrHv1M70qogi-2" target="TyVUZQtJlwXZdlgKBtVK-4" edge="1">
          <mxGeometry relative="1" as="geometry" />
        </mxCell>
        <mxCell id="Qf5dwaaXLrHv1M70qogi-2" value="" style="rounded=1;whiteSpace=wrap;html=1;fillColor=#CCE5FF;" parent="1" vertex="1">
          <mxGeometry x="56" y="160" width="105" height="60" as="geometry" />
        </mxCell>
        <mxCell id="Qf5dwaaXLrHv1M70qogi-3" value="Single&lt;br&gt;Instance" style="rounded=0;whiteSpace=wrap;html=1;" parent="1" vertex="1">
          <mxGeometry x="66" y="175" width="85" height="30" as="geometry" />
        </mxCell>
        <mxCell id="Qf5dwaaXLrHv1M70qogi-4" value="Admin (Web Service)&lt;br&gt;or other upstream system" style="text;html=1;strokeColor=none;fillColor=none;align=center;verticalAlign=middle;whiteSpace=wrap;rounded=0;fontStyle=1" parent="1" vertex="1">
          <mxGeometry x="28.5" y="20" width="160" height="30" as="geometry" />
        </mxCell>
        <mxCell id="Qf5dwaaXLrHv1M70qogi-5" value="Instance #4" style="rounded=0;whiteSpace=wrap;html=1;" parent="1" vertex="1">
          <mxGeometry x="330" y="145" width="85" height="20" as="geometry" />
        </mxCell>
        <mxCell id="Qf5dwaaXLrHv1M70qogi-6" value="Instance #5" style="rounded=0;whiteSpace=wrap;html=1;" parent="1" vertex="1">
          <mxGeometry x="330" y="170" width="85" height="20" as="geometry" />
        </mxCell>
        <mxCell id="Qf5dwaaXLrHv1M70qogi-7" value="Instance #6" style="rounded=0;whiteSpace=wrap;html=1;" parent="1" vertex="1">
          <mxGeometry x="330" y="195" width="85" height="20" as="geometry" />
        </mxCell>
        <mxCell id="Qf5dwaaXLrHv1M70qogi-8" value="Instance #7" style="rounded=0;whiteSpace=wrap;html=1;" parent="1" vertex="1">
          <mxGeometry x="330" y="220" width="85" height="20" as="geometry" />
        </mxCell>
        <mxCell id="Qf5dwaaXLrHv1M70qogi-9" value="Instance #8" style="rounded=0;whiteSpace=wrap;html=1;" parent="1" vertex="1">
          <mxGeometry x="330" y="245" width="85" height="20" as="geometry" />
        </mxCell>
        <mxCell id="Qf5dwaaXLrHv1M70qogi-10" value="Instance #9" style="rounded=0;whiteSpace=wrap;html=1;" parent="1" vertex="1">
          <mxGeometry x="330" y="270" width="85" height="20" as="geometry" />
        </mxCell>
        <mxCell id="Qf5dwaaXLrHv1M70qogi-12" value="Instance #10" style="rounded=0;whiteSpace=wrap;html=1;" parent="1" vertex="1">
          <mxGeometry x="330" y="295" width="85" height="20" as="geometry" />
        </mxCell>
        <mxCell id="Qf5dwaaXLrHv1M70qogi-13" value="&lt;font&gt;Manager for messages in Redis (create/delete Lists/Streams) and in Database table&lt;br&gt;&lt;/font&gt;" style="text;html=1;align=center;verticalAlign=middle;whiteSpace=wrap;rounded=0;fontColor=#66B2FF;" parent="1" vertex="1">
          <mxGeometry x="44" y="220" width="129" height="75" as="geometry" />
        </mxCell>
        <mxCell id="Qf5dwaaXLrHv1M70qogi-16" value="" style="shape=cylinder3;whiteSpace=wrap;html=1;boundedLbl=1;backgroundOutline=1;size=15;flipH=0;direction=north;strokeColor=#d79b00;fillColor=none;" parent="1" vertex="1">
          <mxGeometry x="200" y="230" width="80" height="20" as="geometry" />
        </mxCell>
        <mxCell id="Qf5dwaaXLrHv1M70qogi-17" value="Pending&lt;br&gt;NewMessages&lt;br&gt;Channel" style="text;html=1;align=center;verticalAlign=middle;whiteSpace=wrap;rounded=0;fontColor=#D79B00;" parent="1" vertex="1">
          <mxGeometry x="200" y="255" width="80" height="35" as="geometry" />
        </mxCell>
        <mxCell id="Qf5dwaaXLrHv1M70qogi-19" value="" style="endArrow=classic;html=1;exitX=0.972;exitY=0.966;exitDx=0;exitDy=0;entryX=0.5;entryY=0;entryDx=0;entryDy=0;entryPerimeter=0;exitPerimeter=0;fillColor=#ffe6cc;strokeColor=#d79b00;" parent="1" source="Qf5dwaaXLrHv1M70qogi-2" target="Qf5dwaaXLrHv1M70qogi-16" edge="1">
          <mxGeometry width="50" height="50" relative="1" as="geometry">
            <mxPoint x="520" y="50" as="sourcePoint" />
            <mxPoint x="570" as="targetPoint" />
          </mxGeometry>
        </mxCell>
        <mxCell id="Qf5dwaaXLrHv1M70qogi-20" value="" style="edgeStyle=orthogonalEdgeStyle;rounded=0;orthogonalLoop=1;jettySize=auto;html=1;exitX=0.5;exitY=1;exitDx=0;exitDy=0;exitPerimeter=0;entryX=0;entryY=0.679;entryDx=0;entryDy=0;entryPerimeter=0;fillColor=#ffe6cc;strokeColor=#d79b00;dashed=1;" parent="1" source="Qf5dwaaXLrHv1M70qogi-16" target="TyVUZQtJlwXZdlgKBtVK-5" edge="1">
          <mxGeometry relative="1" as="geometry">
            <mxPoint x="290" y="200" as="sourcePoint" />
            <mxPoint x="330" y="200.115" as="targetPoint" />
          </mxGeometry>
        </mxCell>
        <mxCell id="Qf5dwaaXLrHv1M70qogi-21" value="&lt;font color=&quot;#66b2ff&quot;&gt;FIFO input queue&lt;/font&gt;" style="text;html=1;strokeColor=none;fillColor=none;align=center;verticalAlign=middle;whiteSpace=wrap;rounded=0;fontColor=#D79B00;" parent="1" vertex="1">
          <mxGeometry x="190" y="152.5" width="100" height="12.5" as="geometry" />
        </mxCell>
        <mxCell id="Qf5dwaaXLrHv1M70qogi-23" value="" style="edgeStyle=orthogonalEdgeStyle;rounded=0;orthogonalLoop=1;jettySize=auto;html=1;fontColor=#66B2FF;startArrow=classic;startFill=1;endArrow=none;endFill=0;" parent="1" source="Qf5dwaaXLrHv1M70qogi-22" edge="1">
          <mxGeometry relative="1" as="geometry">
            <mxPoint x="425" y="100" as="targetPoint" />
          </mxGeometry>
        </mxCell>
        <mxCell id="Qf5dwaaXLrHv1M70qogi-22" value="Processing&lt;br&gt;List" style="shape=cylinder3;whiteSpace=wrap;html=1;boundedLbl=1;backgroundOutline=1;size=15;direction=north;" parent="1" vertex="1">
          <mxGeometry x="460" y="80" width="100" height="40" as="geometry" />
        </mxCell>
        <mxCell id="Qf5dwaaXLrHv1M70qogi-25" value="&lt;font color=&quot;#66b2ff&quot;&gt;FIFO output queue&lt;/font&gt;" style="text;html=1;strokeColor=none;fillColor=none;align=center;verticalAlign=middle;whiteSpace=wrap;rounded=0;fontColor=#D79B00;" parent="1" vertex="1">
          <mxGeometry x="735" y="150" width="110" height="20" as="geometry" />
        </mxCell>
        <mxCell id="Qf5dwaaXLrHv1M70qogi-26" value="Sequenced&lt;br&gt;List" style="shape=cylinder3;whiteSpace=wrap;html=1;boundedLbl=1;backgroundOutline=1;size=15;direction=north;" parent="1" vertex="1">
          <mxGeometry x="740" y="170" width="100" height="40" as="geometry" />
        </mxCell>
        <mxCell id="Qf5dwaaXLrHv1M70qogi-28" value="Instance #1" style="rounded=0;whiteSpace=wrap;html=1;" parent="1" vertex="1">
          <mxGeometry x="600" y="130" width="85" height="30" as="geometry" />
        </mxCell>
        <mxCell id="Qf5dwaaXLrHv1M70qogi-29" value="Instance #2" style="rounded=0;whiteSpace=wrap;html=1;" parent="1" vertex="1">
          <mxGeometry x="600" y="175" width="85" height="30" as="geometry" />
        </mxCell>
        <mxCell id="Qf5dwaaXLrHv1M70qogi-30" value="Instance #3" style="rounded=0;whiteSpace=wrap;html=1;" parent="1" vertex="1">
          <mxGeometry x="600" y="220" width="85" height="30" as="geometry" />
        </mxCell>
        <mxCell id="Qf5dwaaXLrHv1M70qogi-31" value="" style="shape=cylinder3;whiteSpace=wrap;html=1;boundedLbl=1;backgroundOutline=1;size=15;flipH=0;direction=north;strokeColor=#d79b00;fillColor=none;" parent="1" vertex="1">
          <mxGeometry x="470" y="230" width="80" height="20" as="geometry" />
        </mxCell>
        <mxCell id="Qf5dwaaXLrHv1M70qogi-32" value="" style="endArrow=classic;html=1;exitX=0.972;exitY=0.966;exitDx=0;exitDy=0;entryX=0.5;entryY=0;entryDx=0;entryDy=0;entryPerimeter=0;exitPerimeter=0;fillColor=#ffe6cc;strokeColor=#d79b00;" parent="1" target="Qf5dwaaXLrHv1M70qogi-31" edge="1">
          <mxGeometry width="50" height="50" relative="1" as="geometry">
            <mxPoint x="424.99999999999994" y="220.00000000000003" as="sourcePoint" />
            <mxPoint x="836.94" y="2.04" as="targetPoint" />
          </mxGeometry>
        </mxCell>
        <mxCell id="Qf5dwaaXLrHv1M70qogi-33" value="" style="edgeStyle=orthogonalEdgeStyle;rounded=0;orthogonalLoop=1;jettySize=auto;html=1;entryX=0.5;entryY=1;entryDx=0;entryDy=0;entryPerimeter=0;fillColor=#ffe6cc;strokeColor=#d79b00;exitX=0.5;exitY=1;exitDx=0;exitDy=0;exitPerimeter=0;dashed=1;" parent="1" source="Qf5dwaaXLrHv1M70qogi-31" edge="1">
          <mxGeometry relative="1" as="geometry">
            <mxPoint x="556.94" y="202.04" as="sourcePoint" />
            <mxPoint x="590" y="240" as="targetPoint" />
            <Array as="points">
              <mxPoint x="590" y="240" />
            </Array>
          </mxGeometry>
        </mxCell>
        <mxCell id="Qf5dwaaXLrHv1M70qogi-34" value="Processed&lt;br&gt;Stream&lt;br&gt;Channel" style="text;html=1;align=center;verticalAlign=middle;whiteSpace=wrap;rounded=0;fontColor=#D79B00;" parent="1" vertex="1">
          <mxGeometry x="470" y="255" width="80" height="35" as="geometry" />
        </mxCell>
        <mxCell id="Qf5dwaaXLrHv1M70qogi-35" value="" style="shape=cylinder3;whiteSpace=wrap;html=1;boundedLbl=1;backgroundOutline=1;size=15;flipH=0;direction=north;strokeColor=#d79b00;fillColor=none;" parent="1" vertex="1">
          <mxGeometry x="760" y="233" width="80" height="20" as="geometry" />
        </mxCell>
        <mxCell id="Qf5dwaaXLrHv1M70qogi-36" value="" style="endArrow=classic;html=1;exitX=0.972;exitY=0.966;exitDx=0;exitDy=0;entryX=0.5;entryY=0;entryDx=0;entryDy=0;entryPerimeter=0;exitPerimeter=0;fillColor=#ffe6cc;strokeColor=#d79b00;" parent="1" target="Qf5dwaaXLrHv1M70qogi-35" edge="1">
          <mxGeometry width="50" height="50" relative="1" as="geometry">
            <mxPoint x="695" y="230" as="sourcePoint" />
            <mxPoint x="1106.94" y="12.04" as="targetPoint" />
          </mxGeometry>
        </mxCell>
        <mxCell id="Qf5dwaaXLrHv1M70qogi-37" value="" style="rounded=0;orthogonalLoop=1;jettySize=auto;html=1;entryX=0.055;entryY=-0.009;entryDx=0;entryDy=0;entryPerimeter=0;fillColor=#ffe6cc;strokeColor=#d79b00;exitX=0.295;exitY=-0.012;exitDx=0;exitDy=0;exitPerimeter=0;dashed=1;" parent="1" source="Qf5dwaaXLrHv1M70qogi-35" target="Qf5dwaaXLrHv1M70qogi-38" edge="1">
          <mxGeometry relative="1" as="geometry">
            <mxPoint x="826.94" y="212.04" as="sourcePoint" />
            <mxPoint x="695.8400000000001" y="272.02" as="targetPoint" />
          </mxGeometry>
        </mxCell>
        <mxCell id="Qf5dwaaXLrHv1M70qogi-38" value="SequencedStreamChannel:&lt;br&gt;HighestEntryIdAndSequence" style="text;html=1;align=center;verticalAlign=middle;whiteSpace=wrap;rounded=0;fontColor=#D79B00;" parent="1" vertex="1">
          <mxGeometry x="685" y="262.5" width="190" height="35" as="geometry" />
        </mxCell>
        <mxCell id="Qf5dwaaXLrHv1M70qogi-39" style="edgeStyle=none;rounded=0;orthogonalLoop=1;jettySize=auto;html=1;exitX=0.5;exitY=1;exitDx=0;exitDy=0;dashed=1;startArrow=classic;startFill=1;endArrow=none;endFill=0;fontColor=#66B2FF;" parent="1" source="Qf5dwaaXLrHv1M70qogi-38" target="Qf5dwaaXLrHv1M70qogi-38" edge="1">
          <mxGeometry relative="1" as="geometry" />
        </mxCell>
        <mxCell id="Qf5dwaaXLrHv1M70qogi-40" value="" style="edgeStyle=orthogonalEdgeStyle;rounded=0;orthogonalLoop=1;jettySize=auto;html=1;exitX=1.002;exitY=0.49;exitDx=0;exitDy=0;exitPerimeter=0;entryX=0.5;entryY=0;entryDx=0;entryDy=0;entryPerimeter=0;" parent="1" target="Qf5dwaaXLrHv1M70qogi-26" edge="1">
          <mxGeometry relative="1" as="geometry">
            <mxPoint x="695" y="189.85000000000002" as="sourcePoint" />
            <mxPoint x="729.79" y="190" as="targetPoint" />
          </mxGeometry>
        </mxCell>
      </root>
    </mxGraphModel>
  </diagram>
</mxfile>
